<svg width="24" height="24" viewBox="0 0 24 24" fill="none" xmlns="http://www.w3.org/2000/svg">
<path d="M4.6974 19.3024C4.22868 18.8337 4.22892 18.0739 4.6974 17.6054L15.5571 6.7457L6.34724 6.74546C5.68436 6.74546 5.1474 6.2085 5.1474 5.54562C5.1474 5.21418 5.28164 4.91418 5.49876 4.69706C5.71588 4.47994 6.0158 4.3457 6.34732 4.3457L18.454 4.34594C19.1167 4.3457 19.6542 4.88314 19.6539 5.54578L19.6541 17.6525C19.6541 18.3154 19.1172 18.8523 18.4543 18.8523C17.7916 18.8526 17.2544 18.3154 17.2544 17.6525L17.2542 8.44266L6.39452 19.3023C5.92604 19.7708 5.16612 19.7711 4.6974 19.3024Z" fill="#231F20"/>
</svg>
