<?xml version="1.0" encoding="UTF-8"?><svg id="Layer_1" xmlns="http://www.w3.org/2000/svg" viewBox="0 0 200 200"><circle cx="100" cy="100" r="100" fill="#101010"/><path d="m70.7785,62.7746c-.499-4.0477,3.8317-7.5,7.5-7.5,4.4077,0,7.0045,3.4806,7.5,7.5,1.0913,8.8517,2.1826,17.7035,3.274,26.5552.499,4.0477-3.8317,7.5-7.5,7.5-4.4077,0-7.0045-3.4806-7.5-7.5-1.0914-8.8517-2.1827-17.7035-3.274-26.5552Zm54.552,25.9736v-26.5411c0-9.6517-15-9.6677-15,0v26.5411c0,9.6518,15,9.6678,15,0Zm18.2278,21.6339c-8.0453,16.1735-24.5518,27.7286-42.856,28.2256-18.8243.5112-36.3831-10.4175-45.1356-26.8931-4.5306-8.5283-17.4832-.9584-12.9521,7.5708,11.1191,20.9304,34.2535,34.9697,58.0877,34.3223,23.3212-.6334,45.4252-14.7821,55.8081-35.6548,4.2863-8.6166-8.6478-16.2237-12.9521-7.5708Z" fill="#f0dc46"/></svg>