<svg width="160" height="160" viewBox="0 0 160 160" fill="none" xmlns="http://www.w3.org/2000/svg">
<path d="M138.086 30.4774C128.99 30.2462 119.897 29.9147 110.808 29.493C107.413 19.2922 100.472 13.5491 90.867 13.5491C82.8474 13.5491 76.6538 17.1004 72.9553 23.819C72.4047 24.8189 71.9073 25.8854 71.4618 27.0206C70.8369 26.9712 70.2119 26.9215 69.5871 26.8714C65.9251 18.3143 59.3875 13.5491 50.6387 13.5491C42.7954 13.5491 36.7054 16.9543 32.9813 23.3887C30.3224 23.0965 27.6637 22.8032 25.0066 22.4947C22.6196 22.2176 19.9569 22.236 17.6901 21.4031C15.5508 20.617 13.3754 22.6373 13.3547 24.7057C13.0034 60.016 13.7586 95.3497 14.4703 130.652C14.5378 134 14.6063 137.348 14.681 140.696C14.7396 143.327 17.5351 144.915 19.8344 143.653L70.0728 116.083C71.8269 115.121 73.581 114.158 75.335 113.195C91.4526 125.242 107.57 137.289 123.688 149.336C126.062 151.111 128.437 152.886 130.811 154.661C132.923 156.239 136.03 154.102 135.965 151.704C135.177 122.684 135.431 93.4579 137.646 64.5089C138.407 54.5635 139.403 44.5974 141.389 34.8126C141.561 33.963 141.439 33.2115 141.131 32.5824C140.687 31.4337 139.674 30.5178 138.086 30.4774ZM90.867 20.399C99.2116 20.399 103.097 26.8146 104.873 33.614C104.88 33.6457 104.882 33.6778 104.89 33.7093C105.156 34.7812 105.39 35.8804 105.592 36.9991C106.167 40.408 106.307 43.6614 106.307 45.9839C106.307 51.8576 105.833 56.4346 104.953 59.9898C104.81 60.5341 104.658 61.0726 104.494 61.604C102.737 67.3 98.9182 70.9595 92.9001 71.4861C92.8021 71.4942 92.7055 71.5046 92.6066 71.5114C92.5125 71.5181 92.4206 71.5213 92.3273 71.5265C92.1464 71.5366 91.9656 71.5469 91.7822 71.553C87.7082 71.6611 84.5535 70.3687 82.1482 68.1564C76.0417 62.2742 75.4264 50.4214 75.4264 45.9839C75.4264 44.1606 75.4726 42.2374 75.6095 40.2979C75.9278 36.9861 76.4824 33.9536 77.154 31.5461C77.2115 31.34 77.243 31.1386 77.2629 30.9399C79.2049 24.9803 83.1157 20.399 90.867 20.399ZM50.6387 20.399C57.8879 20.399 61.7688 25.2424 63.8286 30.971C63.8329 30.9846 63.8345 30.9987 63.839 31.0123C64.3909 32.6652 64.8467 34.3902 65.2134 36.1593C65.9152 39.8695 66.0794 43.4712 66.0794 45.9839C66.0794 51.5184 65.6566 55.897 64.8724 59.3595C64.7485 59.8675 64.6207 60.3732 64.4807 60.8706C63.4118 64.6673 61.5237 67.6838 58.6697 69.5309C58.2942 69.7076 57.9199 69.9202 57.5473 70.1621C56.1288 70.8709 54.5064 71.3269 52.6608 71.487C52.5685 71.4946 52.4775 71.5045 52.3845 71.5109C52.226 71.5221 52.0705 71.5285 51.9146 71.5354C51.7966 71.5412 51.68 71.5486 51.561 71.5526C46.811 71.6722 43.2591 69.8274 40.6807 66.8054C35.7242 60.6124 35.1987 50.1022 35.1987 45.9839C35.1987 42.4172 35.3711 38.4705 36.073 34.7645C36.5647 32.4902 37.1892 30.4438 37.9107 28.7634C37.9807 28.6004 38.0398 28.4382 38.0902 28.2771C40.2854 23.6697 44.091 20.399 50.6387 20.399ZM84.4525 111.512C82.0779 109.737 79.7033 107.962 77.3286 106.187C76.3593 105.462 74.859 105.645 73.8714 106.187C57.1253 115.377 40.3792 124.567 23.6331 133.757C22.8926 134.163 22.1522 134.569 21.4117 134.976C20.8354 108.218 20.3965 81.455 20.2092 54.6924C20.149 46.0835 20.121 37.474 20.1763 28.865C21.3614 28.9824 22.5505 29.0574 23.6811 29.1899C25.8717 29.4466 28.0643 29.6855 30.2562 29.9306C29.7738 31.6015 29.3842 33.4002 29.0862 35.3323C28.2232 40.3273 28.0954 45.4906 28.5096 50.5216C28.7256 53.6134 29.1638 56.491 29.813 59.1305C29.828 59.1924 29.8417 59.2543 29.8569 59.3162C29.9106 59.5305 29.9682 59.7402 30.0247 59.9514C31.6098 65.9766 34.591 71.7439 39.8426 75.2698C40.3253 75.5938 40.8295 75.8828 41.3426 76.1562C41.3621 76.1667 41.382 76.1762 41.4015 76.1867C41.6929 76.3406 41.9858 76.4908 42.2857 76.6286C43.7785 77.3282 45.3757 77.8279 47.0694 78.118C49.0822 78.4794 51.1603 78.5482 53.2046 78.3585C53.4888 80.9313 54.937 83.4615 56.9182 85.533C53.208 87.6422 50.4741 90.9883 51.7748 95.8333C53.544 102.423 60.9388 104.103 66.7054 102.164C70.8619 100.766 69.0792 94.1482 64.8845 95.559C63.1575 96.1398 58.7708 96.9747 58.3799 94.0123C57.977 90.9592 63.0742 90.2128 65.0929 89.7688C68.6295 88.991 68.0528 84.214 65.0929 83.1638C63.1878 82.4878 58.3922 78.2961 60.5821 76.4094C60.9677 76.2282 61.3445 76.0351 61.7118 75.8294C65.4606 74.687 68.6747 79.8568 70.3497 82.3402C72.8016 85.9754 78.7383 82.551 76.2642 78.883C74.2269 75.8624 71.1383 72.3599 67.6428 70.3593C67.79 70.1446 67.9399 69.9335 68.0804 69.7104C69.261 67.8345 70.2126 65.6613 70.9534 63.1531C72.9671 68.6232 76.2699 73.2691 81.3133 76.0354C81.7224 76.2598 82.1432 76.4638 82.5699 76.6566C84.3534 77.485 86.2844 78.0316 88.3514 78.274C91.797 78.7222 95.385 78.3645 98.6284 77.275C98.8581 77.1998 99.084 77.1195 99.3082 77.037C99.4044 77.001 99.5003 76.965 99.5958 76.9277C99.9096 76.8065 100.218 76.678 100.521 76.542C100.546 76.5306 100.573 76.5213 100.598 76.5098C100.628 76.4965 100.655 76.4806 100.685 76.467C100.991 76.326 101.292 76.1778 101.586 76.0215C101.611 76.0082 101.636 75.9945 101.661 75.981C104.362 74.531 106.588 72.4435 108.308 69.7104C109.715 67.4756 110.799 64.8227 111.584 61.6769C113.554 54.1663 113.798 45.7044 112.657 37.8584C112.594 37.3717 112.526 36.8913 112.451 36.4175C119.626 36.7414 126.803 37.0059 133.983 37.211C130.889 54.4383 130.061 72.1461 129.436 89.5858C128.819 106.827 128.704 124.088 128.926 141.338C128.94 142.489 128.959 143.64 128.976 144.791C114.135 133.698 99.2938 122.605 84.4525 111.512ZM51.114 45.2095C51.114 38.8006 54.0581 33.6052 57.6898 33.6052C61.3214 33.6052 64.2655 38.8006 64.2655 45.2095C64.2655 51.6184 61.3214 56.8138 57.6898 56.8138C54.0581 56.8138 51.114 51.6184 51.114 45.2095ZM77.417 45.2095C77.417 38.8006 80.3611 33.6052 83.9928 33.6052C87.6245 33.6052 90.5686 38.8006 90.5686 45.2095C90.5686 51.6184 87.6245 56.8138 83.9928 56.8138C80.3611 56.8138 77.417 51.6184 77.417 45.2095ZM118.419 12.7739C122.834 12.7739 122.826 19.6237 118.419 19.6237C114.004 19.6237 114.011 12.7739 118.419 12.7739ZM135.438 13.1607C139.853 13.1607 139.846 20.0105 135.438 20.0105C131.024 20.0105 131.031 13.1607 135.438 13.1607ZM150.137 20.7841C145.722 20.7841 145.73 13.9343 150.137 13.9343C154.552 13.9343 154.545 20.7841 150.137 20.7841Z" fill="black"/>
</svg>
