<svg width="350" height="160" viewBox="0 0 350 160" fill="none" xmlns="http://www.w3.org/2000/svg">
<rect width="350" height="160" rx="10" fill="#ECEADD"/>
<g clip-path="url(#clip0_817_6762)">
<path opacity="0.3" d="M187.339 60H162.661C158.43 60 155 63.43 155 67.661V92.339C155 96.5701 158.43 100 162.661 100H187.339C191.57 100 195 96.5701 195 92.339V67.661C195 63.4299 191.57 60 187.339 60ZM164.906 65.6833C168.035 65.6833 170.572 68.2204 170.572 71.35C170.572 74.4796 168.035 77.0167 164.906 77.0167C161.776 77.0167 159.239 74.4796 159.239 71.35C159.239 68.2204 161.776 65.6833 164.906 65.6833ZM191.919 90.4384C191.919 94.0178 189.018 96.9194 185.438 96.9194H164.562C162.235 96.9194 160.201 95.6898 159.058 93.8492L167.572 83.1277L179.35 93.7944L191.919 80.358V90.4384Z" fill="#101010"/>
</g>
<defs>
<clipPath id="clip0_817_6762">
<rect width="40" height="40" fill="white" transform="translate(155 60)"/>
</clipPath>
</defs>
</svg>
