<svg width="40" height="40" viewBox="0 0 40 40" fill="none" xmlns="http://www.w3.org/2000/svg">
<g clip-path="url(#clip0_617_4816)">
<path d="M20 40C31.0457 40 40 31.0457 40 20C40 8.95431 31.0457 0 20 0C8.95431 0 0 8.95431 0 20C0 31.0457 8.95431 40 20 40Z" fill="#F0DC46"/>
<path d="M23.7213 10.3436V29.6565C23.7213 30.761 22.8258 31.6565 21.7213 31.6565C20.6168 31.6565 19.7213 30.761 19.7213 29.6565V10.3436C19.7213 9.23899 20.6168 8.34357 21.7213 8.34357C22.8258 8.34357 23.7213 9.23899 23.7213 10.3436ZM15.7354 11.6941C14.6309 11.6941 13.7354 12.5896 13.7354 13.6941V26.3059C13.7354 27.4104 14.6309 28.3059 15.7354 28.3059C16.8399 28.3059 17.7354 27.4104 17.7354 26.3059V13.6941C17.7354 12.5896 16.8399 11.6941 15.7354 11.6941ZM10.0696 16.4377C8.96508 16.4377 8.06958 17.3331 8.06958 18.4377V21.5623C8.06958 22.6668 8.96508 23.5623 10.0696 23.5623C11.1741 23.5623 12.0696 22.6668 12.0696 21.5623V18.4377C12.0696 17.3331 11.1741 16.4377 10.0696 16.4377ZM27.7071 14.6683C26.6026 14.6683 25.7071 15.5637 25.7071 16.6683V23.3318C25.7071 24.4363 26.6026 25.3318 27.7071 25.3318C28.8116 25.3318 29.7071 24.4363 29.7071 23.3318V16.6683C29.7071 15.5637 28.8116 14.6683 27.7071 14.6683Z" fill="#101010"/>
</g>
<defs>
<clipPath id="clip0_617_4816">
<rect width="40" height="40" fill="white"/>
</clipPath>
</defs>
</svg>
