<svg width="24" height="24" viewBox="0 0 24 24" fill="none" xmlns="http://www.w3.org/2000/svg">
<path fill-rule="evenodd" clip-rule="evenodd" d="M9.32001 1.25L8.32001 2.25V2.83008H3.25L2.25 3.83008V7.89008L3.25 8.89008H4.2209L5.17271 21.8235L6.17001 22.7501H17.83L18.8273 21.8235L19.7791 8.89008H20.75L21.75 7.89008V3.83008L20.75 2.83008H15.67V2.25L14.67 1.25H9.32001ZM4.25 4.83008V6.89008H19.75V4.83008H4.25ZM6.22631 8.89014L7.09912 20.7501H16.9009L17.7737 8.89014H6.22631ZM8.76999 17.09V11.51H10.77V17.09H8.76999ZM13.23 11.51V17.09H15.23V11.51H13.23Z" fill="#F0DC46"/>
</svg>
